<svg xmlns="http://www.w3.org/2000/svg" version="1.1" xmlns:xlink="http://www.w3.org/1999/xlink" xmlns:svgjs="http://svgjs.dev/svgjs" width="1500" height="1500" viewBox="0 0 1500 1500"><g transform="matrix(1,0,0,1,-0.21332335329316265,-0.21332335329350371)"><svg viewBox="0 0 334 334" data-background-color="#456417" preserveAspectRatio="xMidYMid meet" height="1500" width="1500" xmlns="http://www.w3.org/2000/svg" xmlns:xlink="http://www.w3.org/1999/xlink"><g id="tight-bounds" transform="matrix(1,0,0,1,0.04749999999998522,0.04750000000001364)"><svg viewBox="0 0 333.90454557049503 333.90454557049503" height="333.90454557049503" width="333.90454557049503"><g><svg></svg></g><g><svg viewBox="0 0 333.90454557049503 333.90454557049503" height="333.90454557049503" width="333.90454557049503"><g><path d="M0 166.952c0-92.205 74.747-166.952 166.952-166.952 92.205 0 166.952 74.747 166.953 166.952 0 92.205-74.747 166.952-166.953 166.953-92.205 0-166.952-74.747-166.952-166.953zM166.952 329.127c89.566 0 162.174-72.608 162.175-162.175 0-89.566-72.608-162.174-162.175-162.174-89.566 0-162.174 72.608-162.174 162.174 0 89.566 72.608 162.174 162.174 162.175z" data-fill-palette-color="tertiary" fill="#e8c757" stroke="transparent"></path><ellipse rx="160.27418187383762" ry="160.27418187383762" cx="166.95227278524752" cy="166.95227278524752" fill="#e8c757" stroke="transparent" stroke-width="0" fill-opacity="1" data-fill-palette-color="tertiary"></ellipse></g><g transform="matrix(1,0,0,1,74.50037167352217,71.17305217166896)"><svg viewBox="0 0 184.9038022234507 191.55844122715712" height="191.55844122715712" width="184.9038022234507"><g><svg viewBox="0 0 184.9038022234507 191.55844122715712" height="191.55844122715712" width="184.9038022234507"><g><svg viewBox="0 0 213.15844122715708 220.82995722575885" height="191.55844122715712" width="184.9038022234507"><g transform="matrix(1,0,0,1,0,134.17528194918867)"><svg viewBox="0 0 213.15844122715708 86.65467527657017" height="86.65467527657017" width="213.15844122715708"><g id="textblocktransform"><svg viewBox="0 0 213.15844122715708 86.65467527657017" height="86.65467527657017" width="213.15844122715708" id="textblock"><g><svg viewBox="0 0 213.15844122715708 61.07575830227841" height="61.07575830227841" width="213.15844122715708"><g transform="matrix(1,0,0,1,0,0)"><svg width="213.15844122715708" viewBox="1.7 -35.35 158.09 45.3" height="61.07575830227841" data-palette-color="#456417"><path d="M33.9-30.4L30.55-26.35Q28.55-28.25 25.88-29.33 23.2-30.4 20.45-30.4L20.45-30.4Q17.75-30.4 15.45-29.4 13.15-28.4 11.4-26.65 9.65-24.9 8.68-22.58 7.7-20.25 7.7-17.55L7.7-17.55Q7.7-14.85 8.68-12.5 9.65-10.15 11.4-8.38 13.15-6.6 15.48-5.6 17.8-4.6 20.5-4.6L20.5-4.6Q22.95-4.6 25.58-5.6 28.2-6.6 30.3-8.3L30.3-8.3 33.7-4.2Q31.95-2.85 29.68-1.8 27.4-0.75 24.95-0.18 22.5 0.4 20.1 0.4L20.1 0.4Q16.2 0.4 12.88-0.98 9.55-2.35 7.03-4.8 4.5-7.25 3.1-10.53 1.7-13.8 1.7-17.55L1.7-17.55Q1.7-21.3 3.13-24.53 4.55-27.75 7.1-30.2 9.65-32.65 13.08-34 16.5-35.35 20.45-35.35L20.45-35.35Q22.95-35.35 25.38-34.75 27.8-34.15 30-33.05 32.2-31.95 33.9-30.4L33.9-30.4ZM28.55-4.2L28.55-17.1 33.7-17.1 33.7-4.2 28.55-4.2ZM64.25-26.55L52.15 3.75Q50.9 6.8 48.7 8.38 46.5 9.95 43.5 9.95L43.5 9.95Q41.7 9.95 40.22 9.4 38.75 8.85 37.35 7.75L37.35 7.75 39.8 3.5Q41.6 4.8 43.25 4.8L43.25 4.8Q44.55 4.8 45.6 4.05 46.65 3.3 47.3 1.75L47.3 1.75 48.2-0.35 37.2-26.55 43.15-26.55 51.1-6.05 58.5-26.55 64.25-26.55ZM87.59 0L87.59-15Q87.59-18.15 85.95-19.93 84.3-21.7 81.34-21.7L81.34-21.7Q77.9-21.6 75.92-19.15 73.95-16.7 73.95-13.1L73.95-13.1 72.34-13.1Q72.34-18 73.72-21 75.09-24 77.62-25.38 80.15-26.75 83.59-26.75L83.59-26.75Q86.65-26.75 88.82-25.5 91-24.25 92.17-21.98 93.34-19.7 93.34-16.5L93.34-16.5 93.34 0 87.59 0ZM106.95 0L106.95-15Q106.95-18.15 105.27-19.93 103.59-21.7 100.65-21.7L100.65-21.7Q97.25-21.6 95.3-19.15 93.34-16.7 93.34-13.1L93.34-13.1 91.7-13.1Q91.7-18 93.07-21 94.45-24 96.97-25.38 99.5-26.75 102.95-26.75L102.95-26.75Q106-26.75 108.17-25.5 110.34-24.25 111.52-21.98 112.7-19.7 112.7-16.5L112.7-16.5 112.7 0 106.95 0ZM68.25 0L68.25-26.55 73.95-26.55 73.95 0 68.25 0ZM143.14-16.95L146.89-14.3Q145.04-9.8 142.42-6.55 139.79-3.3 136.64-1.53 133.49 0.25 129.99 0.25L129.99 0.25Q126.89 0.25 124.39-1.03 121.89-2.3 120.44-4.5 118.99-6.7 118.99-9.55L118.99-9.55Q118.99-12.25 120.27-14.15 121.54-16.05 123.54-17.43 125.54-18.8 127.79-19.9 130.04-21 132.04-22.13 134.04-23.25 135.32-24.63 136.59-26 136.59-27.9L136.59-27.9Q136.59-29.65 135.44-30.75 134.29-31.85 132.34-31.85L132.34-31.85Q130.24-31.85 128.99-30.58 127.74-29.3 127.74-27.45L127.74-27.45Q127.74-25.5 129.02-23.23 130.29-20.95 132.92-18 135.54-15.05 139.52-11.13 143.49-7.2 148.94-1.95L148.94-1.95 145.99 0.9Q141.19-3.75 137.49-7.4 133.79-11.05 131.09-13.93 128.39-16.8 126.64-19.13 124.89-21.45 124.04-23.48 123.19-25.5 123.19-27.4L123.19-27.4Q123.19-29.7 124.34-31.48 125.49-33.25 127.52-34.25 129.54-35.25 132.29-35.25L132.29-35.25Q134.94-35.25 136.92-34.3 138.89-33.35 140.02-31.7 141.14-30.05 141.14-27.95L141.14-27.95Q141.14-25.5 139.89-23.75 138.64-22 136.67-20.7 134.69-19.4 132.47-18.3 130.24-17.2 128.24-16.03 126.24-14.85 124.99-13.4 123.74-11.95 123.74-9.95L123.74-9.95Q123.74-8.15 124.59-6.78 125.44-5.4 126.92-4.65 128.39-3.9 130.19-3.9L130.19-3.9Q132.79-3.9 135.22-5.5 137.64-7.1 139.67-10.05 141.69-13 143.14-16.95L143.14-16.95ZM153.89 0L153.89-35 159.79-35 159.79 0 153.89 0Z" opacity="1" transform="matrix(1,0,0,1,0,0)" fill="#456417" class="wordmark-text-0" data-fill-palette-color="quaternary" id="text-0"></path></svg></g></svg></g><g transform="matrix(1,0,0,1,0,75.49427901924709)"><svg viewBox="0 0 213.15844122715708 11.160396257323091" height="11.160396257323091" width="213.15844122715708"><g transform="matrix(1,0,0,1,0,0)"><svg width="213.15844122715708" viewBox="0.75 -32.3 623.53 32.65" height="11.160396257323091" data-palette-color="#456417"><path d="M14.65-11.6L14.6-9.35 14.7 0 10.75 0 10.95-9.35 10.9-11.45 0.75-32.05 5.05-32.05 5.7-30.25 12.7-15.85 13.05-15.85 20.75-30.15 21.5-32.05 25.7-32.05 14.65-11.6ZM39-25.2Q44.45-25.2 47.37-22 50.3-18.8 50.3-12.95L50.3-12.95Q50.3-6.6 47.17-3.13 44.05 0.35 38.25 0.35L38.25 0.35Q32.85 0.35 29.9-2.93 26.95-6.2 26.95-12.25L26.95-12.25Q26.95-18.45 30.1-21.83 33.25-25.2 39-25.2L39-25.2ZM38.65-22.05Q34.7-22.05 32.77-19.8 30.85-17.55 30.85-12.7L30.85-12.7Q30.85-7.5 32.75-5.15 34.65-2.8 38.55-2.8L38.55-2.8Q42.55-2.8 44.5-5.1 46.45-7.4 46.45-12.3L46.45-12.3Q46.45-17.35 44.52-19.7 42.6-22.05 38.65-22.05L38.65-22.05ZM76.34-24.9L76.2-12.25 76.2-8.65Q76.25-4.4 73.62-2.05 71 0.3 66.09 0.3L66.09 0.3Q61.25 0.3 58.7-2.02 56.15-4.35 56.25-8.65L56.25-8.65 56.3-12.45 56.25-24.9 60-24.9 59.8-9.25Q59.75-6.1 61.37-4.5 63-2.9 66.25-2.9L66.25-2.9Q69.45-2.9 71.09-4.5 72.75-6.1 72.7-9.25L72.7-9.25 72.55-24.9 76.34-24.9ZM95.94-10.05Q98.99-5.4 102.69-0.9L102.69-0.9 102.64-0.4Q100.54 0.25 99.19 0.35L99.19 0.35 98.54-0.05Q94.74-5.8 92.79-9.1L92.79-9.1 88.09-9.05 88.09-7.8 88.19 0 84.49 0 84.64-7.5 84.49-24.9 92.99-24.95Q96.94-24.95 99.07-23.1 101.19-21.25 101.19-17.75L101.19-17.75Q101.19-15.2 99.82-13.2 98.44-11.2 95.94-10.05L95.94-10.05ZM88.19-21.9L88.14-12.15 92.84-12Q97.29-13.25 97.29-17.45L97.29-17.45Q97.29-19.65 95.99-20.75 94.69-21.85 92.04-21.95L92.04-21.95 88.19-21.9ZM127.49-32.1Q132.19-32.1 134.74-29.68 137.29-27.25 137.29-22.7L137.29-22.7Q137.29-17.35 134.11-14.3 130.94-11.25 125.34-11.25L125.34-11.25 121.54-11.25 121.54-10 121.74 0 117.69 0 117.94-9.65 117.69-32.05 127.49-32.1ZM126.84-14.5Q129.94-15 131.56-17 133.19-19 133.19-22.35L133.19-22.35Q133.19-28.55 126.59-28.8L126.59-28.8 121.74-28.65 121.59-14.6 126.84-14.5ZM152.09-3L158.74-3.2 159.04-2.9 158.69 0 143.54 0 143.69-7.5 143.54-24.9 158.79-24.9 159.04-24.6 158.74-21.7 152.44-21.9 147.24-21.85 147.19-14.3 152.14-14.25 156.49-14.4 156.74-14.05 156.44-11.1 151.84-11.25 147.19-11.2 147.14-7.8 147.19-3.05 152.09-3ZM176.73-10.05Q179.78-5.4 183.48-0.9L183.48-0.9 183.43-0.4Q181.33 0.25 179.98 0.35L179.98 0.35 179.33-0.05Q175.53-5.8 173.58-9.1L173.58-9.1 168.88-9.05 168.88-7.8 168.98 0 165.28 0 165.43-7.5 165.28-24.9 173.78-24.95Q177.73-24.95 179.86-23.1 181.98-21.25 181.98-17.75L181.98-17.75Q181.98-15.2 180.61-13.2 179.23-11.2 176.73-10.05L176.73-10.05ZM168.98-21.9L168.93-12.15 173.63-12Q178.08-13.25 178.08-17.45L178.08-17.45Q178.08-19.65 176.78-20.75 175.48-21.85 172.83-21.95L172.83-21.95 168.98-21.9ZM197.43-25.15Q200.48-25.15 203.53-23.95L203.53-23.95 202.88-20.25 202.28-20.1Q200.88-21.2 199.63-21.73 198.38-22.25 197.03-22.25L197.03-22.25Q194.88-22.25 193.63-21.13 192.38-20 192.38-18.55L192.38-18.55Q192.38-17.1 193.61-16.2 194.83-15.3 197.38-14.2L197.38-14.2Q199.63-13.2 200.96-12.4 202.28-11.6 203.26-10.28 204.23-8.95 204.23-7.05L204.23-7.05Q204.23-5.1 203.18-3.43 202.13-1.75 200.11-0.73 198.08 0.3 195.28 0.3L195.28 0.3Q193.53 0.3 191.61-0.13 189.68-0.55 188.03-1.4L188.03-1.4 188.48-5.35 188.98-5.55Q190.38-4.15 192.26-3.38 194.13-2.6 195.73-2.6L195.73-2.6Q197.83-2.6 199.18-3.73 200.53-4.85 200.53-6.45L200.53-6.45Q200.53-7.95 199.31-8.85 198.08-9.75 195.48-10.95L195.48-10.95Q193.33-11.9 191.96-12.7 190.58-13.5 189.63-14.83 188.68-16.15 188.68-18.05L188.68-18.05Q188.68-20.05 189.76-21.65 190.83-23.25 192.81-24.2 194.78-25.15 197.43-25.15L197.43-25.15ZM221.13-25.2Q226.58-25.2 229.5-22 232.43-18.8 232.43-12.95L232.43-12.95Q232.43-6.6 229.3-3.13 226.18 0.35 220.38 0.35L220.38 0.35Q214.98 0.35 212.03-2.93 209.08-6.2 209.08-12.25L209.08-12.25Q209.08-18.45 212.23-21.83 215.38-25.2 221.13-25.2L221.13-25.2ZM220.78-22.05Q216.83-22.05 214.9-19.8 212.98-17.55 212.98-12.7L212.98-12.7Q212.98-7.5 214.88-5.15 216.78-2.8 220.68-2.8L220.68-2.8Q224.68-2.8 226.63-5.1 228.58-7.4 228.58-12.3L228.58-12.3Q228.58-17.35 226.65-19.7 224.73-22.05 220.78-22.05L220.78-22.05ZM259.98-25L259.83-7.45 259.88 0 255.88 0 242.78-19 242.53-19 242.48-8.3 242.58 0 239.18 0 239.33-7.35 239.23-24.9 243.18-24.9 256.28-5.9 256.63-5.9 256.53-24.75 259.98-25ZM279.62-24.9L288.37 0 284.62 0 284.02-2.7 282.72-6.4 276.77-6.45 271.47-6.4 270.12-2.9 269.42 0 265.72 0 275.32-24.9 279.62-24.9ZM277.07-9.4L281.67-9.45 277.52-21.25 277.22-21.25 272.67-9.45 277.07-9.4ZM307.77-3.15L307.97-2.8 307.72 0 294.47 0 294.62-7.5 294.47-24.9 298.22-24.9 298.07-7.8 298.17-3.15 307.77-3.15ZM334.67-32.3Q339.72-32.3 344.07-30.05L344.07-30.05 343.27-26.25 342.77-26.15Q340.37-27.65 338.34-28.3 336.32-28.95 334.07-28.95L334.07-28.95Q323.22-28.95 323.22-15.55L323.22-15.55Q323.22-9.1 325.74-6.08 328.27-3.05 333.57-3.05L333.57-3.05Q334.97-3.05 336.39-3.3 337.82-3.55 340.07-4.25L340.07-4.25 340.17-8 340.12-12.8 343.87-13.1 343.77-8.55 343.97-1.55Q340.72-0.55 338.22-0.1 335.72 0.35 333.37 0.35L333.37 0.35Q326.22 0.35 322.64-3.7 319.07-7.75 319.07-15.4L319.07-15.4Q319.07-23.65 323.12-27.98 327.17-32.3 334.67-32.3L334.67-32.3ZM360.36-8.7L360.31-7.15 360.46 0 356.71 0 356.91-7.15 356.86-8.7 348.41-24.9 352.51-24.9 353.01-23.45 358.61-12.75 358.86-12.75 364.96-23.3 365.61-24.9 369.61-24.9 360.36-8.7ZM399.26-24.9L401.81 0 398.46 0 397.91-7.6 396.56-19.1 396.26-19.1 389.11-2.8 386.16-2.8 379.41-19.1 379.11-19.1 377.81-7.9 377.11 0 373.91 0 376.66-24.9 381.01-24.9 382.26-21.15 387.71-7.75 388.01-7.75 393.71-21.35 395.01-24.9 399.26-24.9ZM429.31-32.3Q434.36-32.3 438.06-29.9L438.06-29.9 437.26-26.25 436.81-26.15Q433.46-28.95 429.11-28.95L429.11-28.95Q424.36-28.95 421.81-25.68 419.26-22.4 419.26-16.1L419.26-16.1Q419.26-9.75 421.81-6.4 424.36-3.05 429.01-3.05L429.01-3.05Q431.21-3.05 433.38-3.85 435.56-4.65 437.36-6.1L437.36-6.1 437.86-5.85 437.51-2.05Q433.16 0.35 428.66 0.35L428.66 0.35Q422.21 0.35 418.66-3.83 415.11-8 415.11-15.75L415.11-15.75Q415.11-23.7 418.81-28 422.51-32.3 429.31-32.3L429.31-32.3ZM453.45-25.2Q458.9-25.2 461.83-22 464.75-18.8 464.75-12.95L464.75-12.95Q464.75-6.6 461.63-3.13 458.5 0.35 452.7 0.35L452.7 0.35Q447.3 0.35 444.35-2.93 441.4-6.2 441.4-12.25L441.4-12.25Q441.4-18.45 444.55-21.83 447.7-25.2 453.45-25.2L453.45-25.2ZM453.1-22.05Q449.15-22.05 447.23-19.8 445.3-17.55 445.3-12.7L445.3-12.7Q445.3-7.5 447.2-5.15 449.1-2.8 453-2.8L453-2.8Q457-2.8 458.95-5.1 460.9-7.4 460.9-12.3L460.9-12.3Q460.9-17.35 458.98-19.7 457.05-22.05 453.1-22.05L453.1-22.05ZM492.3-25L492.15-7.45 492.2 0 488.2 0 475.1-19 474.85-19 474.8-8.3 474.9 0 471.5 0 471.65-7.35 471.55-24.9 475.5-24.9 488.6-5.9 488.95-5.9 488.85-24.75 492.3-25ZM510.15-25.15Q514.3-25.15 517.35-23.4L517.35-23.4 516.65-19.95 516.2-19.8Q514.95-20.85 513.3-21.45 511.65-22.05 509.75-22.05L509.75-22.05Q506.05-22.05 504.1-19.68 502.15-17.3 502.15-12.6L502.15-12.6Q502.15-7.85 504.1-5.35 506.05-2.85 509.75-2.85L509.75-2.85Q511.55-2.85 513.37-3.48 515.2-4.1 516.65-5.15L516.65-5.15 517.1-5 516.75-1.55Q513.35 0.3 509.6 0.3L509.6 0.3Q504.1 0.3 501.15-2.98 498.2-6.25 498.2-12.3L498.2-12.3Q498.2-18.45 501.32-21.8 504.45-25.15 510.15-25.15L510.15-25.15ZM527.25-24.9L527.1-7.8 527.2 0 523.5 0 523.64-7.5 523.5-24.9 527.25-24.9ZM544.99-3L551.64-3.2 551.94-2.9 551.59 0 536.44 0 536.59-7.5 536.44-24.9 551.69-24.9 551.94-24.6 551.64-21.7 545.34-21.9 540.14-21.85 540.09-14.3 545.04-14.25 549.39-14.4 549.64-14.05 549.34-11.1 544.74-11.25 540.09-11.2 540.04-7.8 540.09-3.05 544.99-3ZM569.64-10.05Q572.69-5.4 576.39-0.9L576.39-0.9 576.34-0.4Q574.24 0.25 572.89 0.35L572.89 0.35 572.24-0.05Q568.44-5.8 566.49-9.1L566.49-9.1 561.79-9.05 561.79-7.8 561.89 0 558.19 0 558.34-7.5 558.19-24.9 566.69-24.95Q570.64-24.95 572.76-23.1 574.89-21.25 574.89-17.75L574.89-17.75Q574.89-15.2 573.51-13.2 572.14-11.2 569.64-10.05L569.64-10.05ZM561.89-21.9L561.84-12.15 566.54-12Q570.99-13.25 570.99-17.45L570.99-17.45Q570.99-19.65 569.69-20.75 568.39-21.85 565.74-21.95L565.74-21.95 561.89-21.9ZM593.29-25.15Q597.19-25.15 601.14-23.45L601.14-23.45 599.89-19.85 599.44-19.85Q597.59-21.05 596.04-21.53 594.49-22 592.69-22L592.69-22Q588.44-22 586.31-19.6 584.19-17.2 584.19-12.1L584.19-12.1Q584.19-7.2 586.14-5.03 588.09-2.85 592.34-2.85L592.34-2.85Q593.59-2.85 594.74-3.08 595.89-3.3 597.54-3.9L597.54-3.9 597.54-6.4 597.49-9.95 600.94-10.2 600.94-1.2Q595.89 0.3 592.19 0.3L592.19 0.3Q586.29 0.3 583.26-2.88 580.24-6.05 580.24-11.95L580.24-11.95Q580.24-18.35 583.66-21.75 587.09-25.15 593.29-25.15L593.29-25.15ZM617.33-3L623.98-3.2 624.28-2.9 623.93 0 608.78 0 608.93-7.5 608.78-24.9 624.03-24.9 624.28-24.6 623.98-21.7 617.68-21.9 612.48-21.85 612.43-14.3 617.38-14.25 621.73-14.4 621.98-14.05 621.68-11.1 617.08-11.25 612.43-11.2 612.38-7.8 612.43-3.05 617.33-3Z" opacity="1" transform="matrix(1,0,0,1,0,0)" fill="#456417" class="slogan-text-1" data-fill-palette-color="quaternary" id="text-1"></path></svg></g></svg></g></svg></g></svg></g><g transform="matrix(1,0,0,1,41.74801807411259,0)"><svg viewBox="0 0 129.6624050789319 119.75676123221999" height="119.75676123221999" width="129.6624050789319"><g><svg xmlns="http://www.w3.org/2000/svg" xml:space="preserve" version="1.0" viewBox="4.225 10.219 91.15700000000001 84.19300164145471" x="0" y="0" height="119.75676123221999" width="129.6624050789319" class="icon-icon-0" data-fill-palette-color="quaternary" id="icon-0"><path d="M46.041 26.532a8.155 8.155 0 0 0 8.157-8.157 8.16 8.16 0 0 0-8.157-8.156 8.16 8.16 0 0 0-8.156 8.156 8.155 8.155 0 0 0 8.156 8.157M70.7 26h12.99c0.958 0 1.733-0.543 1.733-1.5 0-0.958-0.775-1.5-1.732-1.5H70.7c-0.957 0-1.732 0.542-1.732 1.5 0 0.957 0.775 1.5 1.732 1.5M72.865 21h8.66c0.958 0 1.733-0.543 1.733-1.5s-0.775-1.5-1.732-1.5h-8.661c-0.957 0-1.732 0.543-1.732 1.5s0.775 1.5 1.732 1.5M68.968 39.5c0 0.957 0.775 1.5 1.732 1.5h12.99c0.958 0 1.733-0.543 1.733-1.5S84.648 38 83.69 38H70.7c-0.957 0-1.732 0.543-1.732 1.5M72.865 45h8.66c0.958 0 1.733-0.543 1.733-1.5s-0.775-1.5-1.732-1.5h-8.661c-0.957 0-1.732 0.543-1.732 1.5s0.775 1.5 1.732 1.5M74 28h5v8h-5zM93.65 91H80.66c-0.958 0-1.733 0.543-1.733 1.5s0.775 1.5 1.732 1.5H93.65c0.958 0 1.732-0.543 1.732-1.5S94.608 91 93.65 91M81.092 87.5c0 0.957 0.775 1.5 1.732 1.5h8.661c0.958 0 1.732-0.543 1.732-1.5s-0.774-1.5-1.732-1.5h-8.66c-0.958 0-1.733 0.543-1.733 1.5M8.889 26h12.99c0.958 0 1.733-0.543 1.733-1.5 0-0.958-0.775-1.5-1.732-1.5H8.889c-0.958 0-1.732 0.542-1.732 1.5 0 0.957 0.774 1.5 1.732 1.5M11.054 21h8.66c0.958 0 1.733-0.543 1.733-1.5s-0.775-1.5-1.733-1.5h-8.66c-0.958 0-1.732 0.543-1.732 1.5s0.774 1.5 1.732 1.5M21.88 38H8.889c-0.958 0-1.732 0.543-1.732 1.5S7.93 41 8.889 41h12.99c0.958 0 1.733-0.543 1.733-1.5S22.837 38 21.88 38M19.714 42h-8.66c-0.958 0-1.732 0.543-1.732 1.5s0.774 1.5 1.732 1.5h8.66c0.958 0 1.733-0.543 1.733-1.5s-0.775-1.5-1.733-1.5M13 28h4v8h-4zM81 36h7.454c0-5-2.454-7.662-7.454-7.662zM12 28H4.225c0 4.32 4.534 7.744 7.775 7.995z" fill="#456417" data-fill-palette-color="quaternary"></path><path d="M73 36v-8H19v8h17v58.185c5 0 8-4.249 8-9.489V61h5v33.185c4 0 8-4.249 8-9.489V36h16M70.47 79.155c-4.209 0-7.625 3.417-7.625 7.632a7.625 7.625 0 0 0 7.625 7.625 7.627 7.627 0 0 0 7.632-7.625 7.63 7.63 0 0 0-7.632-7.632m0 9.797a2.167 2.167 0 0 1-2.165-2.165c0-1.198 0.967-2.165 2.165-2.165s2.165 0.967 2.165 2.165c0 1.19-0.968 2.165-2.165 2.165" fill="#456417" data-fill-palette-color="quaternary"></path></svg></g></svg></g><g></g></svg></g></svg></g></svg></g></svg></g><defs></defs></svg><rect width="333.90454557049503" height="333.90454557049503" fill="none" stroke="none" visibility="hidden"></rect></g></svg></g></svg>